<svg width="480" height="241" viewBox="0 0 480 241" fill="none" xmlns="http://www.w3.org/2000/svg">
<g clip-path="url(#clip0_101_30)">
<g clip-path="url(#clip1_101_30)">
<path d="M181.897 125.831L197.21 133.494L182.3 141.963" stroke="white" stroke-width="3" stroke-linecap="round"/>
<path d="M299.569 121.395L279.42 131.881L297.958 138.333" stroke="white" stroke-width="3" stroke-linecap="round"/>
<path d="M245.097 149.632L245.166 157.691C245.166 157.691 240.828 162.887 237.509 163.74C234.191 164.592 229.575 164.631 227.435 163.337C225.294 162.042 224.646 160.446 224.614 158.094C224.581 155.742 224.945 152.324 224.945 152.324" stroke="white" stroke-width="3" stroke-linecap="round"/>
<path d="M265.033 149.06C265.135 149.674 265.904 154.758 265.544 156.862C265.184 158.967 264.627 159.798 262.988 160.827C261.349 161.857 257.157 162.757 253.146 162.362C249.136 161.968 245.097 157.375 245.097 157.375" stroke="white" stroke-width="3" stroke-linecap="round"/>
<path d="M283.953 12.3134C269.449 18.2099 251.319 28.4153 249.28 31.8171C248.6 33.1778 243.161 34.085 237.496 34.085C229.79 34.085 225.031 32.4975 219.139 28.1885C214.833 24.7867 206.222 20.251 200.103 17.7563C188.772 13.4474 164.75 11.8599 159.538 14.8081C157.725 16.1688 157.272 21.6117 158.405 34.3118C159.538 49.0529 159.311 52.2279 156.592 52.2279C154.779 52.2279 152.059 55.4029 150.246 59.0315C148.207 64.0208 146.394 65.3816 143.901 64.2476C137.782 61.0726 117.613 62.2065 113.307 65.8351C110.588 68.103 105.602 69.0101 98.5768 68.5566C89.5119 67.8762 87.0191 68.7834 80.9003 74.453C75.688 79.2156 72.2887 80.8031 68.2095 80.1227C65.0368 79.4423 60.0512 79.4423 57.1051 80.1227C49.8532 82.1638 37.8423 94.4103 36.2559 102.121C35.1228 106.884 32.8566 109.378 27.1911 111.192C16.0867 114.821 12.4607 122.078 12.2341 139.994C12.2341 148.612 12.2341 159.952 12.0075 165.395C12.0075 173.559 13.1406 176.507 19.0327 182.177C24.6983 187.846 27.871 189.207 35.5761 189.434C41.015 189.434 47.8136 191.248 50.9863 193.289C61.8641 201 85.2061 196.238 87.9256 185.579C89.5119 180.136 96.3106 180.362 96.3106 185.805C96.3106 188.3 95.4041 190.795 94.271 191.475C93.1379 192.155 91.0983 197.825 89.5119 203.722C87.6989 212.113 87.6989 216.195 89.7385 221.184C91.3249 225.039 92.6846 236.379 92.6846 246.357C92.9112 260.418 93.8177 265.861 96.7638 269.263C99.9365 272.665 100.163 274.933 98.3501 282.643C95.1774 294.89 99.03 309.404 106.509 314.393C111.041 317.342 112.174 320.063 112.174 327.774C112.174 338.66 119.879 349.319 127.811 349.319C131.21 349.319 132.797 351.36 133.703 357.029C136.876 373.358 158.405 384.471 174.268 377.894C181.973 374.719 189.225 376.533 189.225 381.522C189.225 385.831 200.556 398.985 207.355 402.614C216.42 407.376 227.524 406.922 236.136 401.48C244.521 396.49 249.053 389.233 247.467 383.11C246.787 380.842 247.24 378.121 248.373 377.44C249.506 376.76 250.413 378.347 250.413 380.842C250.413 386.738 258.798 401.026 264.01 403.747C266.276 405.108 273.755 406.015 280.554 406.015C291.885 406.015 293.698 405.335 301.176 397.624C305.709 392.862 310.241 386.058 311.601 382.203C313.867 375.172 314.093 375.172 327.238 376.079C339.475 376.987 340.608 376.533 345.141 370.863C347.86 367.462 350.126 363.379 350.126 361.792C350.126 360.204 353.299 357.71 357.152 355.895C362.137 353.854 365.763 349.999 368.709 343.195C370.975 337.752 372.562 332.536 371.882 331.402C371.202 330.495 373.015 327.32 376.188 324.372C380.267 320.517 381.853 315.981 383.213 304.415C384.119 296.251 386.839 286.045 389.332 281.963C392.731 276.066 393.411 271.531 392.731 262.006C392.051 255.202 392.278 249.532 392.958 249.532C393.638 249.532 395.677 246.584 397.263 242.956C399.53 237.966 399.53 234.111 397.49 225.493C396.13 219.37 395.224 207.577 395.224 199.413C395.45 188.527 394.771 183.764 392.051 181.496C387.519 177.641 387.745 174.693 392.958 174.693C395.224 174.693 399.756 172.652 403.156 169.93C408.141 166.075 409.728 165.621 412.447 167.889C418.566 173.105 436.016 169.25 443.494 161.312C447.12 157.457 451.426 154.282 453.239 154.282C455.052 154.282 458.225 151.787 460.264 148.612C463.663 143.396 463.663 142.035 460.491 132.057C458.678 126.16 457.318 118.45 457.771 114.821C459.358 101.894 448.253 86.4727 437.149 86.2459C433.976 86.2459 431.257 83.9781 429.444 79.4423C424.458 67.1959 398.623 59.2583 386.159 66.0619C382.533 67.8762 380.267 67.4226 375.508 64.4744C371.429 61.753 364.857 60.3922 355.792 60.1655C343.781 59.9387 341.288 59.2583 334.489 52.6815C329.504 47.919 324.745 45.4243 320.439 45.4243C313.867 45.4243 313.867 45.1975 313.867 32.951C313.867 17.5295 308.881 6.87057 301.856 6.87057C299.136 6.87057 291.205 9.36522 283.953 12.3134ZM305.029 19.7974C310.014 32.4975 304.349 81.7102 298.003 81.7102C293.698 81.7102 268.769 71.9584 259.931 66.7423C251.319 61.5262 250.413 60.3922 253.586 58.578C257.212 56.5369 257.212 56.0833 253.586 53.3619C249.733 50.6404 249.96 50.4136 254.492 49.0529C257.212 48.1458 259.478 46.3315 259.478 45.1975C259.478 43.8368 257.438 43.61 254.945 44.2904C246.56 47.0118 249.96 39.0743 260.158 32.2707C268.543 26.3742 296.19 13.901 300.949 13.6742C301.856 13.6742 303.669 16.3956 305.029 19.7974ZM196.25 24.1064C208.488 28.1885 223.218 38.1671 223.218 42.2493C223.218 44.744 221.859 45.1975 218.686 44.2904C216.193 43.61 214.154 43.8368 214.154 44.9707C214.154 46.1047 216.193 47.6922 218.686 48.3725C223.898 49.7333 224.805 54.4958 220.046 54.4958C218.233 54.4958 215.967 55.6297 215.06 57.2172C213.927 59.0315 215.06 59.2583 218.233 58.578C221.405 57.6708 223.218 58.1244 223.218 60.1655C223.218 63.1137 190.585 80.3495 179.707 82.8441C172.909 84.6584 173.135 84.8852 167.696 59.4851C165.883 50.4136 164.297 37.9404 164.297 31.8171C164.297 22.0653 164.977 20.7046 169.509 19.7974C175.628 18.8903 185.599 20.251 196.25 24.1064ZM329.277 60.8458C332.676 64.2476 336.529 69.2369 337.889 71.5048C340.155 75.587 341.288 75.8138 348.313 73.0923C359.644 69.2369 364.177 69.6905 372.788 76.0405C381.627 82.6174 386.839 83.2977 390.918 78.3084C397.943 69.9173 416.3 77.4013 418.566 89.6477C419.019 92.596 422.192 94.6371 428.311 96.4513C442.588 100.08 443.721 101.441 442.361 113.007C441.455 120.944 442.361 124.8 445.76 129.335C451.426 137.273 450.519 146.118 443.721 147.025C440.775 147.478 438.509 149.293 438.509 150.88C438.509 159.271 417.206 161.766 410.634 154.282C406.782 149.519 406.555 149.519 399.076 157.684C394.997 161.993 389.332 165.621 386.612 165.621C380.267 165.621 372.788 157.911 372.788 151.107C372.788 147.025 370.975 144.984 366.216 143.396C362.59 142.035 358.964 141.582 358.285 142.262C357.605 142.943 354.659 142.943 351.486 142.035C344.914 140.448 342.195 133.644 345.594 127.068C349.22 120.037 346.274 113.46 337.435 109.832C331.997 107.564 329.73 105.069 329.73 101.441C329.73 98.7192 328.824 95.0906 327.691 93.2763C326.104 90.7817 325.198 91.2353 323.158 94.8638C319.306 101.894 322.478 110.739 330.184 115.275C336.076 118.676 336.529 119.81 335.396 127.748C334.036 135.459 334.489 137.046 342.195 144.077C346.727 148.386 352.846 152.014 355.792 152.014C360.324 152.014 368.256 161.086 372.562 171.291C373.015 172.425 375.281 176.054 377.547 179.002C382.306 185.125 383.213 199.639 379.134 203.722C377.094 205.763 377.774 208.938 381.853 217.782C387.519 229.802 387.519 229.122 378.454 244.77C376.414 248.625 375.961 251.8 377.547 255.656C381.173 265.408 379.814 274.252 373.695 280.375C369.162 285.138 368.256 287.633 369.389 293.075C371.882 304.188 368.709 315.074 362.364 318.022C357.378 320.29 356.698 321.877 357.831 327.774C359.418 336.392 353.299 345.69 344.461 347.958C339.475 349.319 339.022 349.999 341.061 353.854C342.874 357.483 342.421 358.844 337.889 361.792C333.356 364.74 330.184 364.967 318.173 363.153C310.241 361.792 303.216 361.565 302.309 362.472C301.403 363.379 299.136 369.276 297.097 375.853C292.338 390.594 289.392 392.862 277.154 391.955C266.73 391.274 265.597 389.687 262.877 371.317C261.971 364.967 260.384 362.926 257.212 362.926C254.945 362.926 252.226 364.06 251.546 365.194C250.64 366.781 248.6 366.554 245.654 364.967C237.949 360.885 234.549 364.06 234.549 374.946C234.549 386.285 232.283 389.006 220.726 391.047C213.927 392.181 211.661 391.501 206.675 386.512C203.276 383.11 200.556 379.028 200.556 377.44C200.556 375.853 199.423 371.997 198.063 369.049C195.344 363.153 195.117 363.153 165.203 366.554C152.059 368.142 148.433 365.42 146.394 352.04C145.261 345.236 143.674 343.195 138.009 341.381C125.771 337.299 123.052 333.897 124.865 323.011C125.998 314.167 125.771 313.033 119.879 309.404C116.253 307.136 112.627 304.188 111.721 302.827C109.228 299.426 109.681 288.086 112.627 279.695C115.12 273.118 114.893 271.758 110.361 266.995C104.922 261.099 103.562 245.677 107.868 238.647C109.908 235.472 109.228 232.75 104.469 225.947C97.217 215.061 97.217 214.154 104.469 200.773C109.455 191.248 109.908 188.98 107.415 184.445C103.109 176.507 107.188 163.127 114.893 159.271C122.372 155.643 125.318 150.88 126.678 139.541C127.358 135.005 129.397 128.882 131.21 125.934C135.289 119.81 135.969 111.192 132.57 111.192C131.437 111.192 130.304 112.1 130.304 113.46C130.304 114.594 127.131 118.676 123.505 122.532C118.519 127.521 116.933 130.923 117.84 134.552C119.426 140.675 114.44 148.159 108.548 148.612C101.523 149.066 98.5768 151.787 98.5768 158.591C98.5768 166.302 94.7242 170.157 87.0191 170.157C82.26 170.157 80.6737 171.518 79.7672 176.734C78.1809 184.671 68.6628 188.98 60.5044 185.352C57.785 183.991 55.5187 182.177 55.5187 181.27C55.5187 180.362 53.9324 178.095 52.346 176.28C49.6266 173.559 47.1338 173.559 39.8819 175.373C32.1768 177.414 30.1372 177.187 26.058 173.559C20.3925 168.343 20.1658 161.086 26.058 153.828C29.9105 148.839 30.1372 147.705 27.1911 143.85C19.486 133.644 25.3781 121.398 38.5222 119.81C44.6409 119.13 45.3208 118.223 46.0007 110.966C47.1338 96.4513 58.0116 90.3281 75.0082 94.1835C81.3536 95.5442 82.26 95.0906 83.3931 90.3281C85.4327 82.6174 95.1774 77.628 100.843 81.2566C107.642 85.3388 113.081 84.4316 118.973 78.3084C125.091 71.7316 132.117 71.0512 142.088 76.2673C149.793 80.3495 150.926 79.6691 159.085 66.7423C161.351 62.8869 161.804 63.5673 163.164 72.1852C164.07 77.628 166.79 84.2049 168.829 86.9263C172.682 91.462 173.588 91.6888 181.747 88.9674C195.797 84.2049 208.035 78.762 216.42 73.7727C226.618 67.4226 248.147 67.8762 259.704 74.453C270.129 80.5763 297.097 88.7406 301.403 86.9263C305.255 85.5656 311.601 74.6798 311.601 69.4637C311.601 62.8869 316.133 54.4958 319.759 54.4958C321.572 54.4958 326.104 57.444 329.277 60.8458Z" fill="white"/>
<path d="M256.985 188.073C252.453 191.702 251.546 194.423 251.773 204.855C251.773 214.834 252.906 218.916 257.891 225.493C270.356 241.595 296.87 251.347 296.87 239.554C296.87 236.832 293.924 234.111 287.352 231.616C273.302 226.173 261.744 215.061 261.744 207.123C261.744 193.743 269.223 192.155 288.939 201C303.669 207.577 310.468 207.577 310.468 200.773C310.468 197.825 308.428 196.011 303.669 195.104C300.043 194.196 293.244 191.248 288.939 188.754C278.741 182.404 264.237 182.177 256.985 188.073Z" fill="white"/>
<path d="M194.664 193.743C188.545 196.691 181.747 199.639 179.48 200.547C176.988 201.227 175.628 203.495 176.081 205.763C177.214 211.659 192.171 210.752 201.236 203.948C213.02 195.33 225.485 199.639 225.485 212.113C225.485 218.463 212.794 230.256 202.369 233.657C191.945 236.832 189.905 239.781 194.437 244.316C202.596 252.481 234.323 234.338 237.949 219.37C244.294 193.97 221.859 180.589 194.664 193.743Z" fill="white"/>
<ellipse cx="244.727" cy="145.973" rx="6.78012" ry="5.92802" fill="white"/>
<path d="M164.267 165.843C164.717 164.492 168.017 157.493 169.611 154.163" stroke="white" stroke-width="2" stroke-linecap="round"/>
<path d="M181.001 154.866L176.361 165.984" stroke="white" stroke-width="2" stroke-linecap="round"/>
<path d="M187.048 166.265C187.273 165.702 189.392 158.713 190.423 155.289" stroke="white" stroke-width="2" stroke-linecap="round"/>
<path d="M295.89 151.489L299.405 162.888" stroke="white" stroke-width="2" stroke-linecap="round"/>
<path d="M306.155 150.926C306.83 153.741 308.968 159.886 309.952 162.606" stroke="white" stroke-width="2" stroke-linecap="round"/>
<path d="M316.983 150.926L320.218 162.043" stroke="white" stroke-width="2" stroke-linecap="round"/>
</g>
</g>
<defs>
<clipPath id="clip0_101_30">
<rect width="480" height="240" fill="white" transform="translate(0 0.5)"/>
</clipPath>
<clipPath id="clip1_101_30">
<rect width="498" height="236" fill="white" transform="translate(-17 -0.5)"/>
</clipPath>
</defs>
</svg>
