<svg width="480" height="241" viewBox="0 0 480 241" fill="none" xmlns="http://www.w3.org/2000/svg">
<g clip-path="url(#clip0_101_31)">
<path d="M223.768 -0.620025C218.759 0.792503 216.434 3.67641 216.613 8.14942C216.791 11.7396 216.791 11.7396 213.87 11.7396C207.55 11.7396 191.391 14.7412 183.223 17.3897C174.219 20.3325 164.381 26.1592 159.074 31.6327C156.391 34.34 153.768 38.9308 153.112 41.7558C152.873 42.8741 151.919 43.6392 148.819 44.9929C146.613 45.9345 143.214 47.9945 141.187 49.4659C139.219 50.9372 136.954 52.4675 136.178 52.8795C135.403 53.2915 133.614 54.5274 132.183 55.5868C130.395 56.9405 127.056 58.353 121.689 60.0598C117.337 61.4135 112.149 63.238 110.182 64.1797C104.458 66.8282 92.5925 71.0069 89.015 71.7132C87.2262 72.0075 83.7084 73.008 81.2637 73.832C78.8191 74.6559 75.7186 75.5976 74.4069 75.8331C73.0951 76.0685 71.1871 76.7159 70.1139 77.2456C69.0406 77.7753 67.6692 78.2461 67.0134 78.2461C65.7612 78.2461 62.6011 79.4821 56.5194 82.4248C54.5517 83.3665 52.6437 84.1317 52.286 84.1317C51.8686 84.1317 49.9606 85.3088 47.993 86.7213C46.0254 88.1927 43.2826 90.0172 41.9709 90.9C40.5995 91.724 38.3337 93.6074 36.9624 95.0787C35.591 96.609 31.5961 100.729 28.0186 104.319C24.5007 107.909 21.6387 111.146 21.6387 111.558C21.6387 111.911 20.5655 113.795 19.3134 115.678C17.7035 118.15 16.8687 120.092 16.5706 122.388C16.3321 124.153 15.7359 126.684 15.2589 127.979C14.7819 129.333 14.2452 133.806 14.0664 138.632C13.7682 145.341 13.8875 147.872 14.7819 151.58C16.3321 158.701 16.6302 159.29 20.804 165.47C24.9777 171.532 28.8534 175.475 34.5774 179.301C40.7187 183.421 44.5944 186.069 44.7732 186.187C44.8329 186.305 44.654 188.129 44.3559 190.248C43.7 194.956 44.7732 203.726 46.9197 211.436C48.5892 217.204 52.4052 224.678 56.2212 229.74L58.7255 233.036H64.5091H70.2331L67.55 230.505C63.9129 227.032 60.3354 222.324 57.8907 217.733C55.3865 213.025 52.763 203.255 52.286 196.84C51.809 190.836 53.24 181.243 55.2672 176.652C56.102 174.828 56.9367 172.709 57.1156 171.944C57.3541 171.238 58.4274 169.472 59.5006 168.059C60.6335 166.588 61.8856 164.646 62.4222 163.763C63.5551 161.585 70.889 154.758 72.0815 154.758C72.5585 154.758 74.1087 154.169 75.4801 153.463C78.8191 151.756 89.4324 151.58 92.4136 153.169C101.059 157.76 102.132 167.824 94.5601 173.945C91.6981 176.24 89.5516 179.183 89.9094 180.301C90.0286 180.654 90.2671 181.714 90.5056 182.597C90.6845 183.538 92.2347 185.657 93.9639 187.364C99.9264 193.249 101.775 197.546 100.701 203.196C100.105 206.433 96.2296 211.789 94.1427 212.319C93.1887 212.554 91.877 213.496 91.2211 214.32C90.1479 215.732 90.1479 216.085 90.8037 217.674C91.9962 220.558 95.9911 220.853 100.105 218.381C102.49 216.968 106.664 210.788 107.797 206.963C108.81 203.667 108.93 198.017 108.155 194.603C107.856 193.426 107.797 192.308 108.035 192.19C108.214 192.072 110.063 192.249 112.09 192.602C116.085 193.308 117.635 192.72 117.635 190.601C117.635 188.894 115.429 187.894 109.228 186.834C103.623 185.893 103.444 185.775 101.298 183.244L99.1512 180.713L101.715 178.182C103.146 176.77 105.054 174.004 106.008 171.944C107.26 169.178 108.512 167.647 111.195 165.587C114.713 162.762 115.488 161.114 113.938 159.584C112.925 158.584 111.434 158.701 109.705 160.055C108.035 161.409 107.499 161.526 107.499 160.585C107.499 159.525 104.517 153.522 103.027 151.58L101.596 149.696L104.935 144.988C109.645 138.396 114.952 132.04 118.649 128.509C122.226 125.154 122.584 123.682 120.318 121.505C118.589 119.739 117.456 119.68 114.892 121.269C112.865 122.446 104.875 131.687 99.4494 139.044C97.7799 141.28 96.0507 143.576 95.5737 144.223C94.739 145.282 94.4409 145.341 91.4 144.694C85.7952 143.517 77.2689 144.341 71.2467 146.636C66.5364 148.402 65.5824 149.049 60.9912 153.581C54.3132 160.173 52.2264 163.41 48.1719 173.003C47.2775 175.122 46.3235 177.064 46.085 177.359C45.608 177.77 41.7324 175.181 34.3389 169.413C32.6097 168.118 30.2247 165.529 29.0322 163.704C27.7801 161.88 26.051 159.408 25.097 158.231C24.2026 157.053 23.4275 155.464 23.4275 154.699C23.4275 153.934 23.0101 151.992 22.5331 150.403C21.1617 145.871 21.2214 136.042 22.7716 129.745C23.4871 126.802 24.2026 123.8 24.3815 123.035C24.5604 122.211 25.2162 120.916 25.9317 120.092C26.5876 119.268 27.482 117.738 27.8994 116.679C28.6149 115.031 35.8295 107.144 43.1634 100.023C46.7409 96.5501 52.8226 92.3125 56.102 91.0766C57.533 90.5469 59.2025 89.6641 59.7391 89.1932C60.2757 88.7224 61.826 88.075 63.1974 87.7807C64.5091 87.4864 66.2382 86.7801 67.0134 86.2504C67.7885 85.7207 69.0406 85.3088 69.7561 85.3088C70.4716 85.3088 71.9622 84.9556 73.0355 84.4848C76.6726 83.0134 84.4835 80.6592 90.5652 79.2467C95.8122 77.9518 108.93 73.1846 113.461 70.8892C114.296 70.4772 119.126 68.7704 124.194 67.1225C130.931 64.886 134.33 63.4734 136.715 61.7666C138.504 60.4718 140.829 59.0004 141.783 58.4707C142.797 57.941 144.645 56.6462 145.957 55.5868C148.163 53.8212 153.172 51.1727 154.245 51.1727C154.543 51.1727 155.258 51.8789 155.974 52.7029C161.4 59.5301 180.539 64.4151 209.756 66.4751C214.705 66.8282 230.505 67.299 244.934 67.4756C297.703 68.123 317.856 64.6505 324.355 53.7034C326.024 50.8784 326.084 50.8784 328.469 51.9966C329.423 52.4675 331.569 53.4092 333.179 54.1154C334.849 54.8806 336.876 55.9399 337.77 56.5285C338.665 57.1759 340.394 58.0587 341.646 58.4707C342.898 58.8827 346.297 60.5895 349.159 62.2375C352.081 63.8854 355.002 65.4157 355.718 65.6511C356.433 65.8865 358.52 66.7693 360.309 67.6522C373.486 74.1262 376.527 75.4211 380.283 76.1862C382.609 76.657 386.425 77.7164 388.869 78.5404C391.254 79.3644 393.699 80.0118 394.295 80.0118C394.891 80.0118 397.157 80.9535 399.423 82.0717C401.629 83.19 404.014 84.1317 404.729 84.1317C405.385 84.1317 407.532 84.9556 409.499 85.9562C414.269 88.3692 419.338 90.1938 426.135 91.8417C427.745 92.2537 429.891 93.3131 430.905 94.1371C431.918 95.0199 433.886 96.3147 435.317 97.021C438.298 98.4924 450.343 109.204 450.343 110.322C450.343 110.793 450.998 111.853 451.774 112.794C452.549 113.677 454.218 117.149 455.59 120.387C457.617 125.389 458.034 127.331 458.392 132.334C458.809 137.455 458.69 138.749 457.676 141.633C457.021 143.517 456.126 146.106 455.709 147.401C452.906 155.935 441.16 166.882 433.23 168.295C425.002 169.766 419.516 170.649 418.682 170.649C418.145 170.649 416.416 168.471 414.508 165.175C412.361 161.585 409.44 157.877 405.803 154.169C400.198 148.461 396.62 146.047 389.942 143.576C387.021 142.516 386.425 141.928 384.338 138.691C383.086 136.689 380.164 133.217 377.839 130.922C375.513 128.685 371.876 124.565 369.789 121.858C367.702 119.151 364.602 115.148 362.992 113.03C360.488 109.793 359.653 109.086 357.983 108.969C353.631 108.557 352.498 112.323 355.718 116.561C356.791 117.973 358.043 119.739 358.52 120.387C361.74 124.977 367.822 132.158 371.757 136.042C374.321 138.514 376.408 140.927 376.408 141.339C376.408 141.869 374.977 142.398 372.472 142.869C367.881 143.693 360.845 147.931 358.699 151.109C357.268 153.287 355.539 158.525 355.539 160.82C355.539 162.998 354.764 163.174 351.723 161.821C347.549 159.996 345.403 160.467 345.403 163.351C345.403 164.41 346.357 165.117 350.471 167.059C355.181 169.354 355.658 169.766 358.162 173.533C359.951 176.24 361.621 178.065 363.23 179.006C365.615 180.36 366.271 181.42 365.079 182.126C364.184 182.655 360.428 188.423 359.474 190.719C358.639 192.661 358.162 192.955 353.452 194.427C348.086 196.133 346.714 197.428 347.907 199.606C348.563 200.901 350.411 200.959 353.75 199.782C357.864 198.37 358.341 198.546 358.401 201.371C358.52 207.139 365.377 216.556 370.803 218.498C372.413 219.028 374.321 219.499 375.036 219.499C376.825 219.499 378.793 217.321 378.793 215.32C378.793 213.437 376.408 211.259 374.38 211.259C372.651 211.259 369.014 207.492 367.523 204.197C365.079 198.9 366.212 193.191 370.982 187.246C373.844 183.538 374.619 182.126 374.619 180.184C374.619 177.417 373.903 176.358 370.326 174.004C366.51 171.532 364.781 169.766 363.946 167.53C362.992 165.117 363.171 161.291 364.244 158.054C365.079 155.759 365.794 154.876 368.299 153.346C372.234 150.874 373.009 150.638 377.302 150.226C382.549 149.696 384.04 149.873 388.034 151.344C392.626 152.992 395.488 154.935 400.079 159.584C410.155 169.766 415.164 183.126 414.269 197.428C413.733 205.491 412.6 209.905 409.082 217.086C406.578 222.147 405.147 224.148 401.271 228.151L396.501 233.036H402.166C407.532 233.036 407.83 232.977 409.321 231.447C412.6 227.856 417.966 218.263 419.815 212.436C422.259 204.844 422.975 191.896 421.365 183.597C420.888 180.949 420.59 178.594 420.769 178.418C421.007 178.241 423.213 177.77 425.777 177.359C438.239 175.416 438.954 175.181 445.573 170.767C455.53 164.234 460.479 157.524 464.593 145.282C466.441 139.809 466.501 127.743 464.772 122.976C461.91 115.09 459.883 110.44 458.869 109.322C458.273 108.674 457.259 107.144 456.603 105.849C455.411 103.554 441.16 90.6057 439.789 90.6057C439.431 90.6057 438.298 89.9583 437.344 89.1344C434.84 87.0156 430.01 84.7791 426.671 84.1317C423.511 83.5431 417.549 81.3066 413.375 79.1878C411.884 78.4227 409.738 77.5987 408.605 77.3633C407.472 77.1279 404.729 76.0096 402.523 74.9502C400.377 73.8908 396.68 72.596 394.414 72.1252C392.089 71.6543 389.465 70.8892 388.511 70.4184C387.617 69.9475 385.53 69.359 383.98 69.1824C379.806 68.535 374.798 66.7105 370.922 64.4151C369.074 63.2969 367.404 62.3552 367.225 62.3552C366.45 62.3552 353.392 56.0577 350.828 54.4686C349.397 53.5857 347.191 52.4675 345.88 51.9966C344.568 51.5847 342.839 50.7018 341.944 50.1133C341.05 49.4659 338.069 47.9945 335.266 46.8174C326.68 43.0506 326.322 42.8741 325.905 41.2261C323.818 32.5155 310.999 23.9226 292.038 18.508C280.709 15.2709 258.529 12.0339 245.292 11.7396C242.848 11.7396 240.641 11.563 240.403 11.4453C240.224 11.2688 239.27 9.67966 238.376 7.914C236.647 4.44153 232.055 0.203949 229.372 -0.325749C226.033 -1.03201 225.199 -1.03201 223.768 -0.620025Z" fill="white"/>
<path d="M163.844 121.034C158.538 123.977 154.841 130.333 154.185 137.749C153.887 140.868 154.006 141.516 154.901 142.222C157.703 144.223 159.313 142.869 160.267 137.808C160.744 135.571 161.638 132.57 162.354 131.275C163.725 128.567 167.78 125.33 169.747 125.33C172.311 125.389 175.71 127.92 177.558 131.216C179.108 133.982 179.645 134.453 181.314 134.63C182.865 134.806 183.342 134.571 183.938 133.335C184.475 132.04 184.415 131.334 183.222 128.862C181.672 125.625 178.512 122.211 175.769 120.799C174.815 120.269 172.43 119.798 170.403 119.621C167.303 119.445 166.408 119.621 163.844 121.034Z" fill="white"/>
<path d="M301.578 122.917C294.542 126.037 290.369 138.455 296.629 137.572C297.583 137.455 298.478 136.454 299.61 134.159C301.936 129.568 304.202 127.685 307.421 127.685C311.118 127.685 313.682 129.627 316.186 134.453C318.75 139.338 319.645 140.044 321.851 138.632C323.282 137.69 323.401 137.337 323.043 135.453C322.149 130.627 318.035 125.154 313.682 122.917C310.76 121.446 304.857 121.446 301.578 122.917Z" fill="white"/>
<path d="M232.294 137.101C230.624 137.808 229.551 139.809 229.968 141.516C230.147 142.222 231.936 144.635 233.963 146.813C236.468 149.52 237.422 151.05 237.183 151.698C236.945 152.286 236.646 153.463 236.468 154.405C235.931 157.053 233.367 161.114 231.34 162.704C228.359 164.881 224.006 166.117 219.296 166.058C208.205 165.823 204.807 162.762 210.054 157.701C212.737 155.111 212.796 154.935 211.485 153.11C210.173 151.286 208.265 151.521 205.463 153.875C202.183 156.641 200.693 160.408 201.647 163.527C203.197 168.707 207.072 171.002 216.016 171.944C221.144 172.532 222.456 172.474 225.974 171.532C232.771 169.766 238.435 165.999 239.568 162.409C240.105 160.702 240.522 160.938 242.549 163.939C244.755 167.235 247.796 169.413 253.282 171.532C256.919 173.003 258.29 173.239 263.716 173.239C269.321 173.297 270.215 173.121 272.362 171.885C276.237 169.531 277.43 168.236 278.384 164.94C279.219 162.056 279.219 161.703 278.145 159.349C276.476 155.641 274.449 153.993 272.481 154.699C270.275 155.523 269.977 157.23 271.587 159.937C273.375 163.057 272.541 164.94 268.665 166.647C265.326 168.059 260.556 167.824 255.428 165.941C250.718 164.116 248.273 161.997 246.306 157.995C244.755 154.699 244.04 150.05 245.113 150.05C245.352 150.05 247.14 148.519 248.989 146.695C251.672 144.046 252.387 142.987 252.387 141.457C252.387 139.103 251.553 138.396 247.856 137.749C243.146 136.866 233.725 136.454 232.294 137.101Z" fill="white"/>
</g>
<defs>
<clipPath id="clip0_101_31">
<rect width="480" height="240" fill="white" transform="translate(0 0.5)"/>
</clipPath>
</defs>
</svg>
